# xmcd
#
# Track frame offsets: 
#        150
#        9082
#        18906
#        28168
#        37206
#        47036
#        58086
#        68491
#        80806
#        90888
#        99527
#        111127
#        119050
#
# Disc length: 1749 seconds
#
# Revision: 0
# Processed by: cddbd v1.5.2PL0 Copyright (c) Steve Scherf et al.
# Submitted via: ExactAudioCopy v1.0b3
#
DISCID=a306d30d
DTITLE=Sleepy Man Banjo Boys - America's Music
DYEAR=2011
DGENRE=Bluegrass
TTITLE0=Clinch Mountain Backstep
TTITLE1=Fireball Mail
TTITLE2=Foggy Mountain Breakdown
TTITLE3=Midnight Ramble
TTITLE4=Salt Creek
TTITLE5=Flint Hill Special
TTITLE6=Bugle Call Rag
TTITLE7=Lonesome Reuben
TTITLE8=John Hardy
TTITLE9=Blue Railroad Train
TTITLE10=I'll Fly Away
TTITLE11=Lee Highway Blues
TTITLE12=Flint Hill Special (Live)
EXTD=
EXTT0=
EXTT1=
EXTT2=
EXTT3=
EXTT4=
EXTT5=
EXTT6=
EXTT7=
EXTT8=
EXTT9=
EXTT10=
EXTT11=
EXTT12=
PLAYORDER=
